# Blender v2.79 (sub 0) OBJ File: ''
# www.blender.org
mtllib aliveai_pyramid_diamond.mtl
o Cone
v 0.000000 -0.173026 0.200000
v 0.000000 -0.386489 -0.000000
v 0.141421 -0.173026 0.141421
v 0.200000 -0.173026 0.000000
v 0.141421 -0.173025 -0.141421
v 0.000000 -0.173025 -0.200000
v -0.141421 -0.173025 -0.141421
v -0.200000 -0.173026 0.000000
v -0.141421 -0.173026 0.141421
v 0.085596 -0.116749 -0.085596
v 0.121051 -0.116749 0.000000
v 0.000000 -0.116749 0.121051
v 0.085596 -0.116749 0.085596
v 0.000000 -0.116749 -0.121051
v -0.085596 -0.116749 -0.085596
v -0.121051 -0.116749 0.000000
v -0.085596 -0.116749 0.085596
vn 0.2893 -0.6545 0.6985
vn 0.6985 -0.6545 0.2893
vn 0.6985 -0.6545 -0.2893
vn 0.2893 -0.6545 -0.6985
vn -0.2893 -0.6545 -0.6985
vn -0.6985 -0.6545 -0.2893
vn -0.6985 -0.6545 0.2893
vn -0.2893 -0.6545 0.6985
vn 0.5644 0.7917 -0.2338
vn 0.0000 1.0000 0.0000
vn -0.5644 0.7917 0.2338
vn 0.5644 0.7917 0.2338
vn -0.5644 0.7917 -0.2338
vn -0.2338 0.7917 -0.5644
vn -0.2338 0.7917 0.5644
vn 0.2338 0.7917 0.5644
vn 0.2338 0.7917 -0.5644
usemtl None
s 1
f 1//1 2//1 3//1
f 3//2 2//2 4//2
f 4//3 2//3 5//3
f 5//4 2//4 6//4
f 6//5 2//5 7//5
f 7//6 2//6 8//6
f 8//7 2//7 9//7
f 9//8 2//8 1//8
f 4//9 5//9 10//9 11//9
f 12//10 13//10 11//10 10//10 14//10 15//10 16//10 17//10
f 8//11 9//11 17//11 16//11
f 3//12 4//12 11//12 13//12
f 7//13 8//13 16//13 15//13
f 6//14 7//14 15//14 14//14
f 9//15 1//15 12//15 17//15
f 1//16 3//16 13//16 12//16
f 5//17 6//17 14//17 10//17
